<svg width="164" height="305" viewBox="0 0 164 305" fill="none" xmlns="http://www.w3.org/2000/svg">
<path d="M21.0165 2.5H141.974C152.212 2.5 160.491 10.7574 160.491 20.9188V283.076C160.491 293.238 152.212 301.495 141.974 301.495H21.0165C10.7791 301.495 2.5 293.238 2.5 283.076V20.9188C2.5 10.7573 10.7791 2.5 21.0165 2.5Z" fill="white" stroke="#1D1D1B" stroke-width="5" stroke-miterlimit="10"/>
<g clip-path="url(#clip0)">
<path d="M29.0492 20.7696H17.5857C17.298 20.7696 17.0646 20.5374 17.0646 20.2514C17.0646 19.9654 17.298 19.7332 17.5857 19.7332H29.0492C29.3369 19.7332 29.5703 19.9654 29.5703 20.2514C29.5703 20.5374 29.3369 20.7696 29.0492 20.7696Z" fill="black"/>
<path d="M29.0492 16.7969H17.5857C17.298 16.7969 17.0646 16.5647 17.0646 16.2787C17.0646 15.9927 17.298 15.7605 17.5857 15.7605H29.0492C29.3369 15.7605 29.5703 15.9927 29.5703 16.2787C29.5703 16.5647 29.3369 16.7969 29.0492 16.7969Z" fill="black"/>
<path d="M29.0492 24.7422H17.5857C17.298 24.7422 17.0646 24.51 17.0646 24.224C17.0646 23.938 17.298 23.7058 17.5857 23.7058H29.0492C29.3369 23.7058 29.5703 23.938 29.5703 24.224C29.5703 24.51 29.3369 24.7422 29.0492 24.7422Z" fill="black"/>
</g>
<path d="M147.874 19.8476C147.874 24.1477 144.368 27.6384 140.037 27.6384C135.706 27.6384 132.2 24.1477 132.2 19.8476C132.2 15.5475 135.706 12.0568 140.037 12.0568C144.368 12.0568 147.874 15.5475 147.874 19.8476Z" fill="white" stroke="#A59C9C"/>
<g clip-path="url(#clip1)">
<path d="M144.707 24.3126L142.226 21.7473C142.864 20.9934 143.213 20.0449 143.213 19.0574C143.213 16.7502 141.326 14.8731 139.006 14.8731C136.686 14.8731 134.798 16.7502 134.798 19.0574C134.798 21.3645 136.686 23.2416 139.006 23.2416C139.877 23.2416 140.707 22.9804 141.416 22.4845L143.915 25.0692C144.02 25.1771 144.16 25.2366 144.311 25.2366C144.454 25.2366 144.589 25.1826 144.691 25.0843C144.909 24.8757 144.916 24.5296 144.707 24.3126ZM139.006 15.9647C140.721 15.9647 142.116 17.352 142.116 19.0574C142.116 20.7627 140.721 22.1501 139.006 22.1501C137.291 22.1501 135.896 20.7627 135.896 19.0574C135.896 17.352 137.291 15.9647 139.006 15.9647Z" fill="black"/>
</g>
<path d="M52.5997 22.9H48.0497L47.1817 25H44.8577L49.2257 15.2H51.4657L55.8477 25H53.4677L52.5997 22.9ZM51.8857 21.178L50.3317 17.426L48.7777 21.178H51.8857ZM58.4023 17.048H55.2663V15.2H63.8063V17.048H60.6703V25H58.4023V17.048ZM71.4849 21.262C71.4849 21.29 71.4709 21.486 71.4429 21.85H65.7449C65.8476 22.3167 66.0903 22.6853 66.4729 22.956C66.8556 23.2267 67.3316 23.362 67.9009 23.362C68.2929 23.362 68.6383 23.306 68.9369 23.194C69.2449 23.0727 69.5296 22.886 69.7909 22.634L70.9529 23.894C70.2436 24.706 69.2076 25.112 67.8449 25.112C66.9956 25.112 66.2443 24.9487 65.5909 24.622C64.9376 24.286 64.4336 23.824 64.0789 23.236C63.7243 22.648 63.5469 21.9807 63.5469 21.234C63.5469 20.4967 63.7196 19.834 64.0649 19.246C64.4196 18.6487 64.9003 18.1867 65.5069 17.86C66.1229 17.524 66.8089 17.356 67.5649 17.356C68.3023 17.356 68.9696 17.5147 69.5669 17.832C70.1643 18.1493 70.6309 18.6067 70.9669 19.204C71.3123 19.792 71.4849 20.478 71.4849 21.262ZM67.5789 19.008C67.0843 19.008 66.6689 19.148 66.3329 19.428C65.9969 19.708 65.7916 20.0907 65.7169 20.576H69.4269C69.3523 20.1 69.1469 19.722 68.8109 19.442C68.4749 19.1527 68.0643 19.008 67.5789 19.008ZM80.2783 17.468L77.1003 25H74.8463L71.6823 17.468H73.9363L76.0223 22.592L78.1783 17.468H80.2783ZM88.3424 21.262C88.3424 21.29 88.3284 21.486 88.3004 21.85H82.6024C82.705 22.3167 82.9477 22.6853 83.3304 22.956C83.713 23.2267 84.189 23.362 84.7584 23.362C85.1504 23.362 85.4957 23.306 85.7944 23.194C86.1024 23.0727 86.387 22.886 86.6484 22.634L87.8104 23.894C87.101 24.706 86.065 25.112 84.7024 25.112C83.853 25.112 83.1017 24.9487 82.4484 24.622C81.795 24.286 81.291 23.824 80.9364 23.236C80.5817 22.648 80.4044 21.9807 80.4044 21.234C80.4044 20.4967 80.577 19.834 80.9224 19.246C81.277 18.6487 81.7577 18.1867 82.3644 17.86C82.9804 17.524 83.6664 17.356 84.4224 17.356C85.1597 17.356 85.827 17.5147 86.4244 17.832C87.0217 18.1493 87.4884 18.6067 87.8244 19.204C88.1697 19.792 88.3424 20.478 88.3424 21.262ZM84.4364 19.008C83.9417 19.008 83.5264 19.148 83.1904 19.428C82.8544 19.708 82.649 20.0907 82.5744 20.576H86.2844C86.2097 20.1 86.0044 19.722 85.6684 19.442C85.3324 19.1527 84.9217 19.008 84.4364 19.008ZM94.3744 17.356C95.3077 17.356 96.0591 17.636 96.6284 18.196C97.2071 18.756 97.4964 19.5867 97.4964 20.688V25H95.3124V21.024C95.3124 20.4267 95.1817 19.9833 94.9204 19.694C94.6591 19.3953 94.2811 19.246 93.7864 19.246C93.2357 19.246 92.7971 19.4187 92.4704 19.764C92.1437 20.1 91.9804 20.604 91.9804 21.276V25H89.7964V17.468H91.8824V18.35C92.1717 18.0327 92.5311 17.79 92.9604 17.622C93.3897 17.4447 93.8611 17.356 94.3744 17.356ZM104.334 24.636C104.119 24.7947 103.853 24.916 103.536 25C103.228 25.0747 102.901 25.112 102.556 25.112C101.66 25.112 100.965 24.8833 100.47 24.426C99.9847 23.9687 99.7421 23.2967 99.7421 22.41V19.316H98.5801V17.636H99.7421V15.802H101.926V17.636H103.802V19.316H101.926V22.382C101.926 22.6993 102.005 22.9467 102.164 23.124C102.332 23.292 102.565 23.376 102.864 23.376C103.209 23.376 103.503 23.2827 103.746 23.096L104.334 24.636ZM111.762 23.32V25H105.042V23.684L108.878 19.148H105.14V17.468H111.636V18.784L107.8 23.32H111.762Z" fill="black"/>
<defs>
<clipPath id="clip0">
<rect width="12.5057" height="12.4362" fill="white" transform="translate(17.0646 14.0441)"/>
</clipPath>
<clipPath id="clip1">
<rect width="10.4214" height="10.3635" fill="white" transform="translate(134.618 14.8731)"/>
</clipPath>
</defs>
</svg>
