<svg width="282" height="526" viewBox="0 0 282 526" fill="none" xmlns="http://www.w3.org/2000/svg">
<path d="M36.1382 5H244.126C261.331 5 275.265 18.9215 275.265 36.0764V488.19C275.265 505.346 261.331 519.267 244.126 519.267H36.1382C18.9329 519.267 5 505.346 5 488.19V36.0764C5 18.9214 18.933 5 36.1382 5Z" fill="white" stroke="#1D1D1B" stroke-width="10" stroke-miterlimit="10"/>
<g clip-path="url(#clip0)">
<path d="M49.7554 35.819H30.0437C29.5491 35.819 29.1477 35.4187 29.1477 34.9254C29.1477 34.4321 29.5491 34.0317 30.0437 34.0317H49.7554C50.25 34.0317 50.6514 34.4321 50.6514 34.9254C50.6514 35.4187 50.25 35.819 49.7554 35.819Z" fill="black"/>
<path d="M49.7554 28.9677H30.0437C29.5491 28.9677 29.1477 28.5674 29.1477 28.0741C29.1477 27.5808 29.5491 27.1805 30.0437 27.1805H49.7554C50.25 27.1805 50.6514 27.5808 50.6514 28.0741C50.6514 28.5674 50.25 28.9677 49.7554 28.9677Z" fill="black"/>
<path d="M49.7554 42.6701H30.0437C29.5491 42.6701 29.1477 42.2697 29.1477 41.7764C29.1477 41.2832 29.5491 40.8828 30.0437 40.8828H49.7554C50.25 40.8828 50.6514 41.2832 50.6514 41.7764C50.6514 42.2697 50.25 42.6701 49.7554 42.6701Z" fill="black"/>
</g>
<path d="M254.436 34.229C254.436 41.8483 248.243 48.0272 240.601 48.0272C232.958 48.0272 226.765 41.8483 226.765 34.229C226.765 26.6097 232.958 20.4308 240.601 20.4308C248.243 20.4308 254.436 26.6097 254.436 34.229Z" fill="white" stroke="#A59C9C"/>
<g clip-path="url(#clip1)">
<path d="M248.629 41.9293L244.365 37.5052C245.461 36.2051 246.062 34.5692 246.062 32.8662C246.062 28.8873 242.816 25.6501 238.827 25.6501C234.838 25.6501 231.592 28.8873 231.592 32.8662C231.592 36.8451 234.838 40.0823 238.827 40.0823C240.325 40.0823 241.752 39.6318 242.972 38.7765L247.269 43.2342C247.449 43.4202 247.69 43.5228 247.949 43.5228C248.194 43.5228 248.427 43.4296 248.603 43.2602C248.978 42.9004 248.99 42.3036 248.629 41.9293ZM238.827 27.5325C241.776 27.5325 244.175 29.9252 244.175 32.8662C244.175 35.8072 241.776 38.1998 238.827 38.1998C235.878 38.1998 233.479 35.8072 233.479 32.8662C233.479 29.9252 235.878 27.5325 238.827 27.5325Z" fill="black"/>
</g>
<path d="M96.512 41.947H89.037L87.611 45.397H83.793L90.969 29.297H94.649L101.848 45.397H97.938L96.512 41.947ZM95.339 39.118L92.786 32.954L90.233 39.118H95.339ZM106.045 32.333H100.893V29.297H114.923V32.333H109.771V45.397H106.045V32.333ZM127.538 39.256C127.538 39.302 127.515 39.624 127.469 40.222H118.108C118.276 40.9887 118.675 41.5944 119.304 42.039C119.932 42.4837 120.714 42.706 121.65 42.706C122.294 42.706 122.861 42.614 123.352 42.43C123.858 42.2307 124.325 41.924 124.755 41.51L126.664 43.58C125.498 44.914 123.796 45.581 121.558 45.581C120.162 45.581 118.928 45.3127 117.855 44.776C116.781 44.224 115.953 43.465 115.371 42.499C114.788 41.533 114.497 40.4367 114.497 39.21C114.497 37.9987 114.78 36.91 115.348 35.944C115.93 34.9627 116.72 34.2037 117.717 33.667C118.729 33.115 119.856 32.839 121.098 32.839C122.309 32.839 123.405 33.0997 124.387 33.621C125.368 34.1424 126.135 34.8937 126.687 35.875C127.254 36.841 127.538 37.968 127.538 39.256ZM121.121 35.553C120.308 35.553 119.626 35.783 119.074 36.243C118.522 36.703 118.184 37.3317 118.062 38.129H124.157C124.034 37.347 123.697 36.726 123.145 36.266C122.593 35.7907 121.918 35.553 121.121 35.553ZM141.984 33.023L136.763 45.397H133.06L127.862 33.023H131.565L134.992 41.441L138.534 33.023H141.984ZM155.232 39.256C155.232 39.302 155.209 39.624 155.163 40.222H145.802C145.971 40.9887 146.369 41.5944 146.998 42.039C147.627 42.4837 148.409 42.706 149.344 42.706C149.988 42.706 150.555 42.614 151.046 42.43C151.552 42.2307 152.02 41.924 152.449 41.51L154.358 43.58C153.193 44.914 151.491 45.581 149.252 45.581C147.857 45.581 146.622 45.3127 145.549 44.776C144.476 44.224 143.648 43.465 143.065 42.499C142.482 41.533 142.191 40.4367 142.191 39.21C142.191 37.9987 142.475 36.91 143.042 35.944C143.625 34.9627 144.414 34.2037 145.411 33.667C146.423 33.115 147.55 32.839 148.792 32.839C150.003 32.839 151.1 33.0997 152.081 33.621C153.062 34.1424 153.829 34.8937 154.381 35.875C154.948 36.841 155.232 37.968 155.232 39.256ZM148.815 35.553C148.002 35.553 147.32 35.783 146.768 36.243C146.216 36.703 145.879 37.3317 145.756 38.129H151.851C151.728 37.347 151.391 36.726 150.839 36.266C150.287 35.7907 149.612 35.553 148.815 35.553ZM165.142 32.839C166.675 32.839 167.91 33.299 168.845 34.219C169.796 35.139 170.271 36.5037 170.271 38.313V45.397H166.683V38.865C166.683 37.8837 166.468 37.1554 166.039 36.68C165.61 36.1894 164.989 35.944 164.176 35.944C163.271 35.944 162.551 36.2277 162.014 36.795C161.477 37.347 161.209 38.175 161.209 39.279V45.397H157.621V33.023H161.048V34.472C161.523 33.9507 162.114 33.552 162.819 33.276C163.524 32.9847 164.299 32.839 165.142 32.839ZM181.504 44.799C181.152 45.0597 180.715 45.259 180.193 45.397C179.687 45.5197 179.151 45.581 178.583 45.581C177.111 45.581 175.969 45.2054 175.156 44.454C174.359 43.7027 173.96 42.5987 173.96 41.142V36.059H172.051V33.299H173.96V30.286H177.548V33.299H180.63V36.059H177.548V41.096C177.548 41.6174 177.679 42.0237 177.939 42.315C178.215 42.591 178.599 42.729 179.089 42.729C179.657 42.729 180.14 42.5757 180.538 42.269L181.504 44.799ZM193.707 42.637V45.397H182.667V43.235L188.969 35.783H182.828V33.023H193.5V35.185L187.198 42.637H193.707Z" fill="black"/>
<defs>
<clipPath id="clip0">
<rect width="21.5037" height="21.4473" fill="white" transform="translate(29.1477 24.2203)"/>
</clipPath>
<clipPath id="clip1">
<rect width="17.9197" height="17.8727" fill="white" transform="translate(231.282 25.6501)"/>
</clipPath>
</defs>
</svg>
