<svg width="325" height="607" viewBox="0 0 325 607" fill="none" xmlns="http://www.w3.org/2000/svg">
<path d="M41.6486 6H281.351C301.594 6 318 22.4026 318 42.6319V564.368C318 584.598 301.594 601 281.351 601H41.6486C21.4062 601 5 584.598 5 564.368V42.6319C5 22.4025 21.4062 6 41.6486 6Z" fill="white" stroke="#1D1D1B" stroke-width="10" stroke-miterlimit="10"/>
<g clip-path="url(#clip0)">
<path d="M56.75 41.3349H34.0326C33.4626 41.3349 33 40.8729 33 40.3036C33 39.7344 33.4626 39.2724 34.0326 39.2724H56.75C57.32 39.2724 57.7826 39.7344 57.7826 40.3036C57.7826 40.8729 57.32 41.3349 56.75 41.3349Z" fill="black"/>
<path d="M56.75 33.4285H34.0326C33.4626 33.4285 33 32.9665 33 32.3973C33 31.828 33.4626 31.366 34.0326 31.366H56.75C57.32 31.366 57.7826 31.828 57.7826 32.3973C57.7826 32.9665 57.32 33.4285 56.75 33.4285Z" fill="black"/>
<path d="M56.75 49.2409H34.0326C33.4626 49.2409 33 48.7789 33 48.2097C33 47.6404 33.4626 47.1784 34.0326 47.1784H56.75C57.32 47.1784 57.7826 47.6404 57.7826 48.2097C57.7826 48.7789 57.32 49.2409 56.75 49.2409Z" fill="black"/>
</g>
<path d="M292.717 39.5C292.717 48.3359 285.545 55.5 276.696 55.5C267.846 55.5 260.674 48.3359 260.674 39.5C260.674 30.6641 267.846 23.5 276.696 23.5C285.545 23.5 292.717 30.6641 292.717 39.5Z" fill="white" stroke="#A59C9C"/>
<g clip-path="url(#clip1)">
<path d="M285.949 48.3861L281.034 43.2807C282.297 41.7804 282.99 39.8926 282.99 37.9273C282.99 33.3357 279.249 29.6 274.652 29.6C270.054 29.6 266.313 33.3357 266.313 37.9273C266.313 42.519 270.054 46.2547 274.652 46.2547C276.378 46.2547 278.022 45.7348 279.429 44.7478L284.381 49.8919C284.588 50.1066 284.867 50.225 285.165 50.225C285.447 50.225 285.715 50.1175 285.919 49.922C286.351 49.5067 286.365 48.818 285.949 48.3861ZM274.652 31.7723C278.05 31.7723 280.815 34.5334 280.815 37.9273C280.815 41.3213 278.05 44.0823 274.652 44.0823C271.253 44.0823 268.488 41.3213 268.488 37.9273C268.488 34.5334 271.253 31.7723 274.652 31.7723Z" fill="black"/>
</g>
<path d="M109.6 47.25H101.475L99.925 51H95.775L103.575 33.5H107.575L115.4 51H111.15L109.6 47.25ZM108.325 44.175L105.55 37.475L102.775 44.175H108.325ZM119.962 36.8H114.362V33.5H129.612V36.8H124.012V51H119.962V36.8ZM143.324 44.325C143.324 44.375 143.299 44.725 143.249 45.375H133.074C133.257 46.2083 133.69 46.8667 134.374 47.35C135.057 47.8333 135.907 48.075 136.924 48.075C137.624 48.075 138.24 47.975 138.774 47.775C139.324 47.5583 139.832 47.225 140.299 46.775L142.374 49.025C141.107 50.475 139.257 51.2 136.824 51.2C135.307 51.2 133.965 50.9083 132.799 50.325C131.632 49.725 130.732 48.9 130.099 47.85C129.465 46.8 129.149 45.6083 129.149 44.275C129.149 42.9583 129.457 41.775 130.074 40.725C130.707 39.6583 131.565 38.8333 132.649 38.25C133.749 37.65 134.974 37.35 136.324 37.35C137.64 37.35 138.832 37.6333 139.899 38.2C140.965 38.7667 141.799 39.5833 142.399 40.65C143.015 41.7 143.324 42.925 143.324 44.325ZM136.349 40.3C135.465 40.3 134.724 40.55 134.124 41.05C133.524 41.55 133.157 42.2333 133.024 43.1H139.649C139.515 42.25 139.149 41.575 138.549 41.075C137.949 40.5583 137.215 40.3 136.349 40.3ZM159.026 37.55L153.351 51H149.326L143.676 37.55H147.701L151.426 46.7L155.276 37.55H159.026ZM173.426 44.325C173.426 44.375 173.401 44.725 173.351 45.375H163.176C163.36 46.2083 163.793 46.8667 164.476 47.35C165.16 47.8333 166.01 48.075 167.026 48.075C167.726 48.075 168.343 47.975 168.876 47.775C169.426 47.5583 169.935 47.225 170.401 46.775L172.476 49.025C171.21 50.475 169.36 51.2 166.926 51.2C165.41 51.2 164.068 50.9083 162.901 50.325C161.735 49.725 160.835 48.9 160.201 47.85C159.568 46.8 159.251 45.6083 159.251 44.275C159.251 42.9583 159.56 41.775 160.176 40.725C160.81 39.6583 161.668 38.8333 162.751 38.25C163.851 37.65 165.076 37.35 166.426 37.35C167.743 37.35 168.935 37.6333 170.001 38.2C171.068 38.7667 171.901 39.5833 172.501 40.65C173.118 41.7 173.426 42.925 173.426 44.325ZM166.451 40.3C165.568 40.3 164.826 40.55 164.226 41.05C163.626 41.55 163.26 42.2333 163.126 43.1H169.751C169.618 42.25 169.251 41.575 168.651 41.075C168.051 40.5583 167.318 40.3 166.451 40.3ZM184.198 37.35C185.864 37.35 187.206 37.85 188.223 38.85C189.256 39.85 189.773 41.3333 189.773 43.3V51H185.873V43.9C185.873 42.8333 185.639 42.0417 185.173 41.525C184.706 40.9917 184.031 40.725 183.148 40.725C182.164 40.725 181.381 41.0333 180.798 41.65C180.214 42.25 179.923 43.15 179.923 44.35V51H176.023V37.55H179.748V39.125C180.264 38.5583 180.906 38.125 181.673 37.825C182.439 37.5083 183.281 37.35 184.198 37.35ZM201.983 50.35C201.599 50.6333 201.124 50.85 200.558 51C200.008 51.1333 199.424 51.2 198.808 51.2C197.208 51.2 195.966 50.7917 195.083 49.975C194.216 49.1583 193.783 47.9583 193.783 46.375V40.85H191.708V37.85H193.783V34.575H197.683V37.85H201.033V40.85H197.683V46.325C197.683 46.8917 197.824 47.3333 198.108 47.65C198.408 47.95 198.824 48.1 199.358 48.1C199.974 48.1 200.499 47.9333 200.933 47.6L201.983 50.35ZM215.247 48V51H203.247V48.65L210.097 40.55H203.422V37.55H215.022V39.9L208.172 48H215.247Z" fill="black"/>
<defs>
<clipPath id="clip0">
<rect width="24.7826" height="24.75" fill="white" transform="translate(33 27.95)"/>
</clipPath>
<clipPath id="clip1">
<rect width="20.6522" height="20.625" fill="white" transform="translate(265.957 29.6)"/>
</clipPath>
</defs>
</svg>
