<svg width="212" height="395" viewBox="0 0 212 395" fill="none" xmlns="http://www.w3.org/2000/svg">
<path d="M27.1677 2.5H183.527C197.158 2.5 208.195 13.5166 208.195 27.0916V366.607C208.195 380.182 197.158 391.199 183.527 391.199H27.1677C13.5375 391.199 2.5 380.182 2.5 366.607V27.0916C2.5 13.5166 13.5375 2.5 27.1677 2.5Z" fill="white" stroke="#1D1D1B" stroke-width="5" stroke-miterlimit="10"/>
<g clip-path="url(#clip0)">
<path d="M37.4048 26.8983H22.586C22.2142 26.8983 21.9125 26.5977 21.9125 26.2272C21.9125 25.8568 22.2142 25.5562 22.586 25.5562H37.4048C37.7766 25.5562 38.0783 25.8568 38.0783 26.2272C38.0783 26.5977 37.7766 26.8983 37.4048 26.8983Z" fill="black"/>
<path d="M37.4048 21.7533H22.586C22.2142 21.7533 21.9125 21.4527 21.9125 21.0823C21.9125 20.7118 22.2142 20.4112 22.586 20.4112H37.4048C37.7766 20.4112 38.0783 20.7118 38.0783 21.0823C38.0783 21.4527 37.7766 21.7533 37.4048 21.7533Z" fill="black"/>
<path d="M37.4048 32.0431H22.586C22.2142 32.0431 21.9125 31.7425 21.9125 31.372C21.9125 31.0016 22.2142 30.701 22.586 30.701H37.4048C37.7766 30.701 38.0783 31.0016 38.0783 31.372C38.0783 31.7425 37.7766 32.0431 37.4048 32.0431Z" fill="black"/>
</g>
<path d="M191.154 25.7043C191.154 31.3564 186.555 35.9415 180.877 35.9415C175.199 35.9415 170.6 31.3564 170.6 25.7043C170.6 20.0522 175.199 15.4671 180.877 15.4671C186.555 15.4671 191.154 20.0522 191.154 25.7043Z" fill="white" stroke="#A59C9C"/>
<g clip-path="url(#clip1)">
<path d="M186.913 31.4868L183.707 28.1646C184.531 27.1882 184.983 25.9598 184.983 24.6809C184.983 21.6929 182.543 19.2619 179.544 19.2619C176.545 19.2619 174.104 21.6929 174.104 24.6809C174.104 27.6688 176.545 30.0998 179.544 30.0998C180.67 30.0998 181.742 29.7615 182.66 29.1192L185.89 32.4667C186.025 32.6064 186.207 32.6835 186.402 32.6835C186.586 32.6835 186.761 32.6135 186.893 32.4863C187.175 32.216 187.184 31.7679 186.913 31.4868ZM179.544 20.6756C181.76 20.6756 183.564 22.4723 183.564 24.6809C183.564 26.8895 181.76 28.6862 179.544 28.6862C177.327 28.6862 175.523 26.8895 175.523 24.6809C175.523 22.4723 177.327 20.6756 179.544 20.6756Z" fill="black"/>
</g>
<path d="M71.704 31.17H66.504L65.512 33.57H62.856L67.848 22.37H70.408L75.416 33.57H72.696L71.704 31.17ZM70.888 29.202L69.112 24.914L67.336 29.202H70.888ZM78.3355 24.482H74.7515V22.37H84.5115V24.482H80.9275V33.57H78.3355V24.482ZM93.2871 29.298C93.2871 29.33 93.2711 29.554 93.2391 29.97H86.7271C86.8445 30.5034 87.1218 30.9247 87.5591 31.234C87.9965 31.5434 88.5405 31.698 89.1911 31.698C89.6391 31.698 90.0338 31.634 90.3751 31.506C90.7271 31.3674 91.0525 31.154 91.3511 30.866L92.6791 32.306C91.8685 33.234 90.6845 33.698 89.1271 33.698C88.1565 33.698 87.2978 33.5114 86.5511 33.138C85.8045 32.754 85.2285 32.226 84.8231 31.554C84.4178 30.882 84.2151 30.1194 84.2151 29.266C84.2151 28.4234 84.4125 27.666 84.8071 26.994C85.2125 26.3114 85.7618 25.7834 86.4551 25.41C87.1591 25.026 87.9431 24.834 88.8071 24.834C89.6498 24.834 90.4125 25.0154 91.0951 25.378C91.7778 25.7407 92.3111 26.2634 92.6951 26.946C93.0898 27.618 93.2871 28.402 93.2871 29.298ZM88.8231 26.722C88.2578 26.722 87.7831 26.882 87.3991 27.202C87.0151 27.522 86.7805 27.9594 86.6951 28.514H90.9351C90.8498 27.97 90.6151 27.538 90.2311 27.218C89.8471 26.8874 89.3778 26.722 88.8231 26.722ZM103.337 24.962L99.7046 33.57H97.1286L93.5126 24.962H96.0886L98.4726 30.818L100.937 24.962H103.337ZM112.553 29.298C112.553 29.33 112.537 29.554 112.505 29.97H105.993C106.11 30.5034 106.387 30.9247 106.825 31.234C107.262 31.5434 107.806 31.698 108.457 31.698C108.905 31.698 109.299 31.634 109.641 31.506C109.993 31.3674 110.318 31.154 110.617 30.866L111.945 32.306C111.134 33.234 109.95 33.698 108.393 33.698C107.422 33.698 106.563 33.5114 105.817 33.138C105.07 32.754 104.494 32.226 104.089 31.554C103.683 30.882 103.481 30.1194 103.481 29.266C103.481 28.4234 103.678 27.666 104.073 26.994C104.478 26.3114 105.027 25.7834 105.721 25.41C106.425 25.026 107.209 24.834 108.073 24.834C108.915 24.834 109.678 25.0154 110.361 25.378C111.043 25.7407 111.577 26.2634 111.961 26.946C112.355 27.618 112.553 28.402 112.553 29.298ZM108.089 26.722C107.523 26.722 107.049 26.882 106.665 27.202C106.281 27.522 106.046 27.9594 105.961 28.514H110.201C110.115 27.97 109.881 27.538 109.497 27.218C109.113 26.8874 108.643 26.722 108.089 26.722ZM119.447 24.834C120.513 24.834 121.372 25.154 122.023 25.794C122.684 26.434 123.015 27.3834 123.015 28.642V33.57H120.519V29.026C120.519 28.3434 120.369 27.8367 120.071 27.506C119.772 27.1647 119.34 26.994 118.775 26.994C118.145 26.994 117.644 27.1914 117.271 27.586C116.897 27.97 116.711 28.546 116.711 29.314V33.57H114.215V24.962H116.599V25.97C116.929 25.6074 117.34 25.33 117.831 25.138C118.321 24.9354 118.86 24.834 119.447 24.834ZM130.829 33.154C130.584 33.3354 130.28 33.474 129.917 33.57C129.565 33.6554 129.192 33.698 128.797 33.698C127.773 33.698 126.978 33.4367 126.413 32.914C125.858 32.3914 125.581 31.6234 125.581 30.61V27.074H124.253V25.154H125.581V23.058H128.077V25.154H130.221V27.074H128.077V30.578C128.077 30.9407 128.168 31.2234 128.349 31.426C128.541 31.618 128.808 31.714 129.149 31.714C129.544 31.714 129.88 31.6074 130.157 31.394L130.829 33.154ZM139.318 31.65V33.57H131.638V32.066L136.022 26.882H131.75V24.962H139.174V26.466L134.79 31.65H139.318Z" fill="black"/>
<defs>
<clipPath id="clip0">
<rect width="16.1659" height="16.1058" fill="white" transform="translate(21.9125 18.1882)"/>
</clipPath>
<clipPath id="clip1">
<rect width="13.4716" height="13.4215" fill="white" transform="translate(173.872 19.2619)"/>
</clipPath>
</defs>
</svg>
